General
Complete name                    : Tinker Tailor Soldier Spy[2011]BRrip[Ac3-5.1]
                                   -=[CaLvIn]=-
Imdb Link                        : http://www.imdb.com/title/tt1340800/
Format                           : AVI
Format/Info                      : Audio Video Interleave
File size                        : 900 MiB
Duration                         : 2h 7mn
Overall bit rate                 : 988 Kbps
Writing application              : VirtualDubMod 1.5.10.3 | www.virtualdub-fr.org || (build 2550/release)
Writing library                  : VirtualDubMod build 2550/release

Video
ID                               : 0
Format                           : MPEG-4 Visual
Format profile                   : Advanced Simple@L5
Format settings, BVOP            : 2
Format settings, QPel            : No
Format settings, GMC             : No warppoints
Format settings, Matrix          : Default (H.263)
Codec ID                         : XVID
Codec ID/Hint                    : XviD
Duration                         : 2h 7mn
Bit rate                         : 786 Kbps
Width                            : 720 pixels
Height                           : 304 pixels
Display aspect ratio             : 16:9
Frame rate                       : 23.976 fps
Color space                      : YUV
Chroma subsampling               : 4:2:0
Bit depth                        : 8 bits
Scan type                        : Progressive
Compression mode                 : Lossy
Bits/(Pixel*Frame)               : 0.150
Stream size                      : 717 MiB (80%)
Writing library                  : XviD 1.2.1 (UTC 2008-12-04)

Audio
ID                               : 1
Format                           : AC-3
Format/Info                      : Audio Coding 3
Mode extension                   : CM (complete main)
Codec ID                         : 2000
Duration                         : 2h 7mn
Bit rate mode                    : Constant
Bit rate                         : 192 Kbps
Channel(s)                       : 6 channels
Channel positions                : Front: L C R, Side: L R, LFE
Sampling rate                    : 48.0 KHz
Bit depth                        : 16 bits
Compression mode                 : Lossy
Stream size                      : 175 MiB (19%)
Alignment                        : Split accross interleaves
Interleave, duration             : 42 ms (1.00 video frame)
Interleave, preload duration     : 500 ms


Screens
 
http://img440.imageshack.us/img440/3487/80593133.png 
http://img209.imageshack.us/img209/5454/29122131.png 
http://img856.imageshack.us/img856/8439/98518684.png 
http://img651.imageshack.us/img651/5378/74324342.png 
http://img832.imageshack.us/img832/8646/45804396.png 
http://img822.imageshack.us/img822/921/24688625.png 
http://img4.imageshack.us/img4/7087/81995797.png 
http://img829.imageshack.us/img829/6897/67999365.png 
http://img853.imageshack.us/img853/6731/84356077.png 
http://img855.imageshack.us/img855/6369/31814452.png